<svg id="Layer_1" data-name="Layer 1" xmlns="http://www.w3.org/2000/svg" viewBox="0 0 669.48 597.38"><defs><style>.cls-1{fill:#1f1f1f;}</style></defs><title>logo</title><polygon class="cls-1" points="669.48 298.69 575.82 205.04 482.17 298.69 370.79 187.31 370.79 0.01 370.8 0 669.48 298.69"/><rect class="cls-1" x="678.64" y="425.78" width="132.44" height="132.44" transform="translate(-299.04 477.44) rotate(-45)"/><polygon class="cls-1" points="669.48 298.69 370.8 597.38 370.79 597.37 370.79 410.07 482.17 298.69 575.82 392.34 669.48 298.69"/><polygon class="cls-1" points="0 298.69 93.66 205.04 187.31 298.69 298.69 187.31 298.69 0.01 298.68 0 0 298.69"/><rect class="cls-1" x="196.73" y="425.78" width="132.44" height="132.44" transform="translate(-440.18 136.76) rotate(-45)"/><polygon class="cls-1" points="0 298.69 298.68 597.38 298.69 597.37 298.69 410.07 187.31 298.69 93.66 392.34 0 298.69"/></svg>